<svg width="22" height="56" viewBox="0 0 22 56" fill="none" xmlns="http://www.w3.org/2000/svg">
<path d="M10.9577 0.000341302C10.2293 0.0119265 9.53523 0.317084 9.02774 0.84884C8.52026 1.3806 8.24084 2.09551 8.25081 2.83667V8.43281C7.52151 8.43281 6.82208 8.7276 6.30639 9.25234C5.79069 9.77708 5.50098 10.4888 5.50098 11.2309V14.0289H16.5003V11.2309C16.5003 10.4888 16.2106 9.77708 15.6949 9.25234C15.1792 8.7276 14.4798 8.43281 13.7505 8.43281V2.83667C13.7555 2.46231 13.6867 2.09074 13.5481 1.74395C13.4094 1.39715 13.2038 1.08219 12.9434 0.817714C12.683 0.553237 12.373 0.344622 12.032 0.204223C11.6909 0.0638235 11.3256 -0.00550558 10.9577 0.000341302ZM19.2233 16.827L2.75114 16.8707C2.33323 16.8705 1.92077 16.9673 1.5451 17.1536C1.16943 17.3399 0.840431 17.6109 0.583105 17.9459C0.325779 18.281 0.146894 18.6713 0.0600408 19.0873C-0.0268125 19.5033 -0.0193491 19.9339 0.0818642 20.3465L2.75114 28.0193H19.2502L21.8926 20.3027C21.9938 19.8902 22.0013 19.4595 21.9144 19.0436C21.8276 18.6276 21.6487 18.2373 21.3913 17.9022C21.134 17.5671 20.805 17.2962 20.4294 17.1098C20.0537 16.9235 19.6412 16.8268 19.2233 16.827ZM19.2233 30.8174L2.75114 30.8611C2.33323 30.8609 1.92077 30.9576 1.5451 31.1439C1.16943 31.3302 0.840431 31.6012 0.583106 31.9363C0.32578 32.2713 0.146895 32.6617 0.0600414 33.0776C-0.0268121 33.4936 -0.0193488 33.9242 0.0818642 34.3368L2.75114 42.0097H19.2502L21.8926 34.2931C21.9938 33.8805 22.0013 33.4499 21.9144 33.0339C21.8276 32.618 21.6487 32.2276 21.3913 31.8926C21.134 31.5575 20.805 31.2865 20.4294 31.1002C20.0537 30.9139 19.6412 30.8172 19.2233 30.8174ZM2.75114 44.8077L0.00130258 56H22L19.2502 44.8077H2.75114Z" fill="#643000"/>
</svg>
